<svg width="280" height="224" viewBox="0 0 280 224" fill="none" xmlns="http://www.w3.org/2000/svg">
    <path opacity="0.1" d="M36.4277 187.025C9.59376 162.275 -5.51502 127.771 3.32123 99.1464C12.2206 70.5662 45.0692 47.9189 78.3445 29.8331C111.616 11.6949 145.314 -1.88171 182.046 0.785376C218.72 3.46114 258.429 22.3806 272.894 54.0564C287.412 85.6709 276.69 130.094 250.428 163.519C224.225 196.934 182.363 219.368 142.151 223.061C101.943 226.806 63.3249 211.819 36.4277 187.025Z" fill="#3E9E6A"/>
    <g clip-path="url(#clip0)">
        <path d="M102.582 103.582H115.256C130.66 103.582 143.188 115.649 143.188 130.477C143.188 131.289 142.504 131.951 141.656 131.951C140.808 131.951 140.124 131.289 140.124 130.477C140.124 117.27 128.967 106.529 115.256 106.529H102.582C101.734 106.529 101.05 105.867 101.05 105.055C101.05 104.243 101.734 103.582 102.582 103.582Z" fill="#3C9B68" stroke="#ECF5F0" stroke-width="0.1"/>
        <path d="M102.582 115.769H115.256C123.681 115.769 130.532 122.369 130.532 130.477C130.532 131.289 129.848 131.951 129 131.951C128.152 131.951 127.468 131.289 127.468 130.477C127.468 123.99 121.988 118.716 115.256 118.716H102.582C101.734 118.716 101.05 118.054 101.05 117.243C101.05 116.431 101.734 115.769 102.582 115.769Z" fill="#3C9B68" stroke="#ECF5F0" stroke-width="0.1"/>
        <path d="M149.884 110.066L149.854 110.018C148.206 107.445 146.237 105.038 143.961 102.847L143.921 102.807L143.965 102.772C150.712 97.3236 159.202 94.3414 168.056 94.3414H180.418C181.266 94.3414 181.95 93.6795 181.95 92.868C181.95 92.0559 181.266 91.3945 180.418 91.3945H168.056C166.442 91.3945 164.838 91.4867 163.254 91.6674L163.202 91.6733L163.198 91.621C162.637 83.12 156.799 75.7668 148.308 73.074C148.308 73.074 148.308 73.074 148.308 73.074L148.323 73.0264L149.884 110.066ZM149.884 110.066L149.928 110.03L149.884 110.066ZM122.896 92.0331C129.816 93.2935 136.252 96.2636 141.659 100.727C146.979 96.3445 153.324 93.3952 160.109 92.0973C159.741 84.692 154.702 78.2572 147.333 75.9203C146.504 75.6573 146.052 74.7962 146.326 73.997L122.896 92.0331ZM122.896 92.0331C123.289 84.6545 128.32 78.2507 135.667 75.9203M122.896 92.0331L135.667 75.9203M136.627 74.0132L136.627 74.0131C136.363 73.241 135.497 72.8188 134.692 73.074L136.627 74.0132ZM136.627 74.0132C136.891 74.7844 136.456 75.6176 135.652 75.8727L135.667 75.9203M136.627 74.0132L135.667 75.9203" fill="#3C9B68" stroke="#ECF5F0" stroke-width="0.1"/>
        <path d="M143.032 65.4514C143.032 66.2635 142.348 66.9248 141.5 66.9248C140.652 66.9248 139.968 66.2635 139.968 65.4514V55.5234C139.968 54.7114 140.652 54.05 141.5 54.05C142.348 54.05 143.032 54.7114 143.032 55.5234V65.4514Z" fill="#3C9B68" stroke="#ECF5F0" stroke-width="0.1"/>
        <path d="M125.919 69.7943L125.919 69.7943L120.764 61.1964L120.764 61.1964C120.342 60.493 120.592 59.5922 121.325 59.1848L121.325 59.1848C122.058 58.7768 122.996 59.0199 123.419 59.7244C123.419 59.7244 123.419 59.7244 123.419 59.7244L128.573 68.3223C128.995 69.0263 128.746 69.9265 128.013 70.3339L128.013 70.3339C127.771 70.4683 127.508 70.5323 127.247 70.5323C126.717 70.5323 126.202 70.2673 125.919 69.7943Z" fill="#3C9B68" stroke="#ECF5F0" stroke-width="0.1"/>
        <path d="M116.009 80.3202L116.009 80.3202L107.08 75.3565C107.08 75.3565 107.08 75.3565 107.08 75.3565C106.348 74.949 106.098 74.0482 106.52 73.3449C106.942 72.6403 107.88 72.3973 108.614 72.8053L108.614 72.8053L117.542 77.7689C118.275 78.1764 118.525 79.0772 118.103 79.7806L118.103 79.7806C117.82 80.2535 117.304 80.5186 116.774 80.5186C116.514 80.5186 116.25 80.4546 116.009 80.3202Z" fill="#3C9B68" stroke="#ECF5F0" stroke-width="0.1"/>
        <path d="M154.988 70.3337L154.988 70.3337C154.254 69.9262 154.005 69.026 154.427 68.322L159.582 59.7241C159.582 59.7241 159.582 59.7241 159.582 59.7241C160.004 59.0196 160.942 58.7771 161.676 59.1845C162.409 59.592 162.658 60.4928 162.236 61.1961L162.236 61.1962L157.081 69.7941L157.081 69.7941C156.798 70.267 156.283 70.5321 155.753 70.5321C155.492 70.5321 155.229 70.4681 154.988 70.3337Z" fill="#3C9B68" stroke="#ECF5F0" stroke-width="0.1"/>
        <path d="M166.991 80.3188L166.991 80.3189C166.75 80.4532 166.487 80.5173 166.227 80.5173C165.696 80.5173 165.181 80.2522 164.898 79.7793L164.897 79.7792C164.476 79.0759 164.725 78.1751 165.458 77.7676L174.387 72.8039L174.387 72.8039C175.12 72.3959 176.058 72.6384 176.48 73.3435L176.48 73.3436C176.902 74.0469 176.653 74.9477 175.92 75.3552L175.944 75.3989L175.92 75.3552L166.991 80.3188Z" fill="#3C9B68" stroke="#ECF5F0" stroke-width="0.1"/>
        <path d="M142.584 74.5411C142.299 74.8152 141.903 74.9734 141.5 74.9734C141.097 74.9734 140.701 74.8152 140.416 74.5411C140.132 74.267 139.968 73.8866 139.968 73.5C139.968 73.1134 140.132 72.733 140.416 72.4589C140.701 72.1848 141.097 72.0266 141.5 72.0266C141.903 72.0266 142.299 72.1848 142.584 72.4589C142.868 72.733 143.032 73.1134 143.032 73.5C143.032 73.8866 142.868 74.267 142.584 74.5411Z" fill="#3C9B68" stroke="#ECF5F0" stroke-width="0.1"/>
    </g>
    <defs>
        <clipPath id="clip0">
            <rect x="101" y="54" width="81" height="78" fill="white"/>
        </clipPath>
    </defs>
</svg>
