<svg width="89" height="31" viewBox="0 0 89 31" fill="none" xmlns="http://www.w3.org/2000/svg">
<path d="M44.1798 12.3479C44.9232 12.3479 45.2949 11.9927 45.2949 11.2823C45.2949 10.5606 44.9232 10.1997 44.1798 10.1997H40.2693V1.6411C40.2693 1.24643 40.1624 0.930693 39.9485 0.693893C39.7347 0.457092 39.4444 0.338692 39.0778 0.338692C38.7112 0.338692 38.421 0.457092 38.2071 0.693893C37.9933 0.930693 37.8863 1.24643 37.8863 1.6411V11.1131C37.8863 11.5078 37.9831 11.8122 38.1766 12.0265C38.3701 12.2407 38.645 12.3479 39.0014 12.3479H44.1798ZM55.5141 12.4155C55.8094 12.4155 56.0716 12.3056 56.3007 12.0857C56.5299 11.8658 56.6444 11.598 56.6444 11.2823C56.6444 11.1244 56.6037 10.944 56.5222 10.741L52.3979 1.15058C52.2757 0.891226 52.1026 0.688254 51.8785 0.541664C51.6545 0.395073 51.4101 0.321777 51.1453 0.321777C50.8907 0.321777 50.6514 0.392254 50.4274 0.533206C50.2033 0.674159 50.0353 0.87995 49.9233 1.15058L45.799 10.741C45.7175 10.944 45.6768 11.1244 45.6768 11.2823C45.6768 11.598 45.7939 11.8658 46.0281 12.0857C46.2623 12.3056 46.5271 12.4155 46.8224 12.4155C47.0261 12.4155 47.2119 12.3563 47.38 12.2379C47.548 12.1195 47.6778 11.9419 47.7695 11.7051L48.5791 9.70923H53.7574L54.567 11.7051C54.6586 11.9419 54.791 12.1195 54.9641 12.2379C55.1373 12.3563 55.3206 12.4155 55.5141 12.4155ZM52.9478 7.71334H49.3887L51.1759 3.31561L52.9478 7.71334ZM41.5677 30.3417C41.9343 30.3417 42.2245 30.2233 42.4384 29.9865C42.6522 29.7497 42.7592 29.434 42.7592 29.0393V20.4807H45.2338C45.9874 20.4807 46.3641 20.1198 46.3641 19.3982C46.3641 18.6878 45.9874 18.3326 45.2338 18.3326H37.9016C37.148 18.3326 36.7712 18.6878 36.7712 19.3982C36.7712 20.1198 37.148 20.4807 37.9016 20.4807H40.3762V29.0393C40.3762 29.434 40.4857 29.7497 40.7046 29.9865C40.9236 30.2233 41.2113 30.3417 41.5677 30.3417ZM53.9102 30.2572C54.6637 30.2572 55.0405 29.9189 55.0405 29.2423C55.0405 28.5544 54.6637 28.2105 53.9102 28.2105H49.7094V25.2167H53.6046C54.3582 25.2167 54.735 24.8784 54.735 24.2018C54.735 23.514 54.3582 23.1701 53.6046 23.1701H49.7094V20.3792H53.9102C54.6637 20.3792 55.0405 20.0353 55.0405 19.3474C55.0405 18.6708 54.6637 18.3326 53.9102 18.3326H48.5027C48.1463 18.3326 47.8713 18.4397 47.6778 18.6539C47.4843 18.8682 47.3876 19.1726 47.3876 19.5673V29.0224C47.3876 29.4171 47.4843 29.7215 47.6778 29.9358C47.8713 30.15 48.1463 30.2572 48.5027 30.2572H53.9102ZM64.3585 30.3925C64.664 30.3925 64.9313 30.291 65.1604 30.088C65.3896 29.885 65.5041 29.6257 65.5041 29.31C65.5041 29.0732 65.4277 28.8307 65.275 28.5826L64.1141 26.6544C63.89 26.2823 63.6584 25.9976 63.419 25.8002C63.1797 25.6029 62.9073 25.4704 62.6018 25.4027C63.4369 25.211 64.0835 24.8107 64.5418 24.2018C65 23.5929 65.2292 22.8318 65.2292 21.9184C65.2292 20.7569 64.9058 19.8689 64.2592 19.2544C63.6125 18.6398 62.6578 18.3326 61.3951 18.3326H57.561C57.2045 18.3326 56.9296 18.4397 56.7361 18.6539C56.5426 18.8682 56.4459 19.1726 56.4459 19.5673V29.0393C56.4459 29.4453 56.5528 29.7666 56.7666 30.0034C56.9805 30.2402 57.2707 30.3586 57.6373 30.3586C57.9938 30.3586 58.2763 30.2402 58.4851 30.0034C58.6939 29.7666 58.7983 29.4453 58.7983 29.0393V25.6226H60.0356C60.3309 25.6226 60.5753 25.6875 60.7688 25.8171C60.9623 25.9468 61.1456 26.1583 61.3187 26.4514L63.335 29.7666C63.4572 29.9809 63.61 30.1388 63.7933 30.2402C63.9766 30.3417 64.165 30.3925 64.3585 30.3925ZM61.0437 23.6267H58.7677V20.3454H61.0437C61.726 20.3454 62.2199 20.475 62.5254 20.7344C62.8309 20.9937 62.9837 21.411 62.9837 21.986C62.9837 22.5499 62.8309 22.9643 62.5254 23.2293C62.2199 23.4942 61.726 23.6267 61.0437 23.6267ZM75.0665 30.3925C75.372 30.3925 75.6393 30.291 75.8684 30.088C76.0976 29.885 76.2121 29.6257 76.2121 29.31C76.2121 29.0732 76.1357 28.8307 75.983 28.5826L74.8221 26.6544C74.598 26.2823 74.3664 25.9976 74.127 25.8002C73.8877 25.6029 73.6153 25.4704 73.3098 25.4027C74.1449 25.211 74.7915 24.8107 75.2498 24.2018C75.708 23.5929 75.9372 22.8318 75.9372 21.9184C75.9372 20.7569 75.6138 19.8689 74.9672 19.2544C74.3205 18.6398 73.3658 18.3326 72.1031 18.3326H68.269C67.9125 18.3326 67.6376 18.4397 67.4441 18.6539C67.2506 18.8682 67.1539 19.1726 67.1539 19.5673V29.0393C67.1539 29.4453 67.2608 29.7666 67.4746 30.0034C67.6885 30.2402 67.9787 30.3586 68.3453 30.3586C68.7018 30.3586 68.9843 30.2402 69.1931 30.0034C69.4019 29.7666 69.5063 29.4453 69.5063 29.0393V25.6226H70.7436C71.0389 25.6226 71.2833 25.6875 71.4768 25.8171C71.6703 25.9468 71.8536 26.1583 72.0267 26.4514L74.043 29.7666C74.1652 29.9809 74.318 30.1388 74.5013 30.2402C74.6846 30.3417 74.873 30.3925 75.0665 30.3925ZM71.7517 23.6267H69.4757V20.3454H71.7517C72.434 20.3454 72.9279 20.475 73.2334 20.7344C73.5389 20.9937 73.6917 21.411 73.6917 21.986C73.6917 22.5499 73.5389 22.9643 73.2334 23.2293C72.9279 23.4942 72.434 23.6267 71.7517 23.6267ZM86.8896 30.3248C87.1849 30.3248 87.4471 30.2149 87.6762 29.995C87.9054 29.7751 88.0199 29.5073 88.0199 29.1916C88.0199 29.0337 87.9792 28.8533 87.8977 28.6503L83.7734 19.0599C83.6512 18.8005 83.4781 18.5975 83.254 18.451C83.03 18.3044 82.7856 18.2311 82.5208 18.2311C82.2662 18.2311 82.0269 18.3015 81.8029 18.4425C81.5788 18.5835 81.4108 18.7892 81.2988 19.0599L77.1745 28.6503C77.093 28.8533 77.0523 29.0337 77.0523 29.1916C77.0523 29.5073 77.1694 29.7751 77.4036 29.995C77.6378 30.2149 77.9026 30.3248 78.1979 30.3248C78.4016 30.3248 78.5874 30.2656 78.7555 30.1472C78.9235 30.0288 79.0533 29.8512 79.145 29.6144L79.9546 27.6185H85.1329L85.9425 29.6144C86.0342 29.8512 86.1665 30.0288 86.3397 30.1472C86.5128 30.2656 86.6961 30.3248 86.8896 30.3248ZM84.3233 25.6226H80.7642L82.5514 21.2249L84.3233 25.6226Z" fill="black"/>
<path fill-rule="evenodd" clip-rule="evenodd" d="M0 0H22.0047C25.2029 0 27.7955 2.86449 27.7955 6.39802V30.7105H0V0Z" fill="#3C9B68"/>
<path fill-rule="evenodd" clip-rule="evenodd" d="M13.3722 10.3462C12.5769 9.58064 12.0088 8.30475 12.0088 7.02886C12.0088 5.62537 12.8041 4.0943 13.713 3.20117C14.622 4.0943 15.4173 5.62537 15.4173 7.02886C15.4173 8.30475 14.7356 9.58064 13.9403 10.3462V13.1053C14.1675 12.5949 14.2811 12.3398 14.622 11.957C15.4173 11.1915 16.6671 10.8087 17.6896 10.8087C17.6896 11.957 17.3488 13.3605 16.6671 14.2536C15.9854 15.0191 14.9628 15.4019 13.9403 15.2743V18.5917C14.1675 18.2089 14.2811 17.8261 14.622 17.4433C15.4173 16.6778 16.6671 16.295 17.6896 16.295C17.6896 17.5709 17.3488 18.9744 16.6671 19.8675C15.9854 20.6331 14.9628 20.8883 13.9403 20.8883V30.7126H13.3722C13.3722 30.7126 13.1449 25.8643 11.5543 25.2263C9.96366 24.5884 8.71387 25.6091 8.71387 25.6091C8.71387 25.6091 9.96366 24.078 11.4407 24.3332C12.5769 24.4608 13.1449 25.8643 13.3722 26.7574V20.8883C12.4632 20.8883 11.4407 20.6331 10.759 19.8675C9.96366 18.9744 9.62281 17.5709 9.62281 16.295C10.759 16.295 12.0088 16.6778 12.8041 17.4433C13.0313 17.8261 13.2586 18.2089 13.3722 18.5917V15.2743C12.4632 15.4019 11.4407 15.0191 10.759 14.2536C9.96366 13.3605 9.62281 11.957 9.62281 10.8087C10.759 10.8087 12.0088 11.1915 12.8041 11.957C13.0313 12.3398 13.2586 12.5949 13.3722 13.1053V10.3462Z" fill="white"/>
</svg>
