<svg width="361" height="289" viewBox="0 0 361 289" fill="none" xmlns="http://www.w3.org/2000/svg">
    <path opacity="0.1" d="M220.555 257.277C187.018 268.512 153.898 264.528 128.154 250.02C102.366 235.433 83.9078 210.244 70.9741 175.465C58.0403 140.687 50.6467 96.2544 68.9771 68.969C87.3685 41.6975 131.5 31.5085 176.388 30.0965C221.277 28.6845 266.999 35.9991 291.357 64.6943C315.793 93.3392 318.943 143.314 303.488 181.483C288.093 219.665 254.154 246.055 220.555 257.277Z" fill="#3E9E6A"/>
    <mask id="path-2-inside-1" fill="white">
        <path d="M226.418 133.406C227.292 133.406 228 132.724 228 131.883L228 88.9219C228 88.5178 227.833 88.1304 227.537 87.8447L220.892 81.4463C220.274 80.8512 219.273 80.8512 218.655 81.4463L213.129 86.7676L207.603 81.4463C206.985 80.8512 205.984 80.8512 205.366 81.4463L198.721 87.8447C198.425 88.1304 198.258 88.5178 198.258 88.9219L198.258 100.539L181.697 90.3792C181.177 90.0609 180.515 90.0609 179.996 90.3792L168.519 97.4239C167.783 97.8762 167.566 98.8176 168.036 99.5276C168.506 100.237 169.483 100.446 170.22 99.9935L180.847 93.4707L211.547 112.305L211.547 130.359L201.422 130.359L201.422 112.383C201.422 111.541 200.714 110.859 199.84 110.859L161.871 110.859C160.997 110.859 160.289 111.541 160.289 112.383L160.289 130.359L150.164 130.359L150.164 112.304L159.547 106.545C160.284 106.093 160.5 105.151 160.031 104.441C159.561 103.731 158.583 103.524 157.846 103.975L147.732 110.184C147.276 110.464 147 110.948 147 111.469L147 131.883C147 132.724 147.708 133.406 148.582 133.406L165.415 133.406C163.931 134.874 162.906 136.774 162.571 138.89L148.582 138.89C147.708 138.89 147 139.572 147 140.414C147 141.255 147.708 141.937 148.582 141.937L162.571 141.937C162.907 144.054 163.931 145.954 165.415 147.422L148.582 147.422C147.708 147.422 147 148.104 147 148.945C147 149.787 147.708 150.469 148.582 150.469L198.694 150.469C199.03 152.585 200.054 154.485 201.538 155.953L148.582 155.953C147.708 155.953 147 156.635 147 157.476C147 158.318 147.708 159 148.582 159L226.418 159C227.292 159 228 158.318 228 157.476C228 156.635 227.292 155.953 226.418 155.953L216.493 155.953C217.977 154.485 219.002 152.585 219.337 150.469L226.418 150.469C227.292 150.469 228 149.787 228 148.945C228 148.104 227.292 147.422 226.418 147.422L219.337 147.422C219.002 145.305 217.977 143.405 216.493 141.937L226.418 141.937C227.292 141.937 228 141.255 228 140.414C228 139.572 227.292 138.89 226.418 138.89L183.214 138.89C182.879 136.774 181.854 134.874 180.37 133.406L226.418 133.406ZM182.438 121.219L189.692 121.219L182.438 128.205L182.438 121.219ZM172.019 130.359L179.273 123.373L179.273 130.359L172.019 130.359ZM169.781 128.205L169.781 121.219L177.036 121.219L169.781 128.205ZM184.675 130.359L191.93 123.373L191.93 130.359L184.675 130.359ZM219.773 84.6777L224.836 89.5526L224.836 130.359L214.711 130.359L214.711 89.5526L219.773 84.6777ZM201.422 102.48L201.422 89.5526L206.484 84.6777L211.547 89.5526L211.547 108.692L201.422 102.48ZM163.453 113.906L198.258 113.906L198.258 130.359L195.094 130.359L195.094 119.695C195.094 118.854 194.386 118.172 193.512 118.172L168.199 118.172C167.325 118.172 166.617 118.854 166.617 119.695L166.617 130.359L163.453 130.359L163.453 113.906ZM183.214 141.937L201.538 141.937C200.054 143.405 199.03 145.305 198.694 147.422L180.37 147.422C181.854 145.954 182.879 144.054 183.214 141.937ZM216.293 148.945C216.293 152.809 213.028 155.953 209.016 155.953C205.003 155.953 201.738 152.809 201.738 148.945C201.738 145.081 205.003 141.937 209.016 141.937C213.028 141.937 216.293 145.081 216.293 148.945ZM180.17 140.414C180.17 144.278 176.905 147.422 172.893 147.422C168.881 147.422 165.617 144.279 165.615 140.416C165.615 140.415 165.615 140.414 165.615 140.414C165.615 140.413 165.615 140.413 165.615 140.412C165.617 136.549 168.881 133.406 172.893 133.406C176.905 133.406 180.17 136.55 180.17 140.414Z"/>
    </mask>
    <path d="M226.418 133.406C227.292 133.406 228 132.724 228 131.883L228 88.9219C228 88.5178 227.833 88.1304 227.537 87.8447L220.892 81.4463C220.274 80.8512 219.273 80.8512 218.655 81.4463L213.129 86.7676L207.603 81.4463C206.985 80.8512 205.984 80.8512 205.366 81.4463L198.721 87.8447C198.425 88.1304 198.258 88.5178 198.258 88.9219L198.258 100.539L181.697 90.3792C181.177 90.0609 180.515 90.0609 179.996 90.3792L168.519 97.4239C167.783 97.8762 167.566 98.8176 168.036 99.5276C168.506 100.237 169.483 100.446 170.22 99.9935L180.847 93.4707L211.547 112.305L211.547 130.359L201.422 130.359L201.422 112.383C201.422 111.541 200.714 110.859 199.84 110.859L161.871 110.859C160.997 110.859 160.289 111.541 160.289 112.383L160.289 130.359L150.164 130.359L150.164 112.304L159.547 106.545C160.284 106.093 160.5 105.151 160.031 104.441C159.561 103.731 158.583 103.524 157.846 103.975L147.732 110.184C147.276 110.464 147 110.948 147 111.469L147 131.883C147 132.724 147.708 133.406 148.582 133.406L165.415 133.406C163.931 134.874 162.906 136.774 162.571 138.89L148.582 138.89C147.708 138.89 147 139.572 147 140.414C147 141.255 147.708 141.937 148.582 141.937L162.571 141.937C162.907 144.054 163.931 145.954 165.415 147.422L148.582 147.422C147.708 147.422 147 148.104 147 148.945C147 149.787 147.708 150.469 148.582 150.469L198.694 150.469C199.03 152.585 200.054 154.485 201.538 155.953L148.582 155.953C147.708 155.953 147 156.635 147 157.476C147 158.318 147.708 159 148.582 159L226.418 159C227.292 159 228 158.318 228 157.476C228 156.635 227.292 155.953 226.418 155.953L216.493 155.953C217.977 154.485 219.002 152.585 219.337 150.469L226.418 150.469C227.292 150.469 228 149.787 228 148.945C228 148.104 227.292 147.422 226.418 147.422L219.337 147.422C219.002 145.305 217.977 143.405 216.493 141.937L226.418 141.937C227.292 141.937 228 141.255 228 140.414C228 139.572 227.292 138.89 226.418 138.89L183.214 138.89C182.879 136.774 181.854 134.874 180.37 133.406L226.418 133.406ZM182.438 121.219L189.692 121.219L182.438 128.205L182.438 121.219ZM172.019 130.359L179.273 123.373L179.273 130.359L172.019 130.359ZM169.781 128.205L169.781 121.219L177.036 121.219L169.781 128.205ZM184.675 130.359L191.93 123.373L191.93 130.359L184.675 130.359ZM219.773 84.6777L224.836 89.5526L224.836 130.359L214.711 130.359L214.711 89.5526L219.773 84.6777ZM201.422 102.48L201.422 89.5526L206.484 84.6777L211.547 89.5526L211.547 108.692L201.422 102.48ZM163.453 113.906L198.258 113.906L198.258 130.359L195.094 130.359L195.094 119.695C195.094 118.854 194.386 118.172 193.512 118.172L168.199 118.172C167.325 118.172 166.617 118.854 166.617 119.695L166.617 130.359L163.453 130.359L163.453 113.906ZM183.214 141.937L201.538 141.937C200.054 143.405 199.03 145.305 198.694 147.422L180.37 147.422C181.854 145.954 182.879 144.054 183.214 141.937ZM216.293 148.945C216.293 152.809 213.028 155.953 209.016 155.953C205.003 155.953 201.738 152.809 201.738 148.945C201.738 145.081 205.003 141.937 209.016 141.937C213.028 141.937 216.293 145.081 216.293 148.945ZM180.17 140.414C180.17 144.278 176.905 147.422 172.893 147.422C168.881 147.422 165.617 144.279 165.615 140.416C165.615 140.415 165.615 140.414 165.615 140.414C165.615 140.413 165.615 140.413 165.615 140.412C165.617 136.549 168.881 133.406 172.893 133.406C176.905 133.406 180.17 136.55 180.17 140.414Z" fill="#3C9B68" stroke="#ECF5F0" stroke-width="0.6" mask="url(#path-2-inside-1)"/>
    <path d="M213.612 148.944C213.612 151.376 211.555 153.365 209.016 153.365C206.476 153.365 204.42 151.376 204.42 148.944C204.42 146.512 206.476 144.524 209.016 144.524C211.555 144.524 213.612 146.512 213.612 148.944ZM210.748 148.944C210.748 148.016 209.966 147.271 209.016 147.271C208.066 147.271 207.284 148.016 207.284 148.944C207.284 149.873 208.066 150.618 209.016 150.618C209.966 150.618 210.748 149.873 210.748 148.944Z" fill="#3C9B68" stroke="#ECF5F0" stroke-width="0.3"/>
    <path d="M177.489 140.414C177.489 142.846 175.432 144.834 172.893 144.834C170.353 144.834 168.297 142.846 168.297 140.414C168.297 137.982 170.353 135.994 172.893 135.994C175.432 135.994 177.489 137.982 177.489 140.414ZM174.625 140.414C174.625 139.486 173.842 138.741 172.893 138.741C171.943 138.741 171.161 139.486 171.161 140.414C171.161 141.342 171.943 142.087 172.893 142.087C173.842 142.087 174.625 141.342 174.625 140.414Z" fill="#3C9B68" stroke="#ECF5F0" stroke-width="0.3"/>
    <path d="M164.034 103.509C164.45 103.509 164.858 103.347 165.152 103.064C165.447 102.779 165.616 102.387 165.616 101.985C165.616 101.584 165.447 101.191 165.152 100.907C164.858 100.624 164.45 100.461 164.034 100.461C163.616 100.461 163.209 100.624 162.913 100.907C162.619 101.191 162.452 101.584 162.452 101.985C162.452 102.387 162.619 102.781 162.913 103.064C163.208 103.347 163.616 103.509 164.034 103.509Z" fill="#3C9B68"/>
</svg>
